<svg xmlns="http://www.w3.org/2000/svg" xmlns:xlink="http://www.w3.org/1999/xlink" version="1.1" width="1000" height="1000" viewBox="0 0 1000 1000" xml:space="preserve">
<desc>Created with Fabric.js 3.5.0</desc>
<defs>
</defs>
<rect x="0" y="0" width="100%" height="100%" fill="rgba(255,255,255,0)"/>
<g transform="matrix(0.1954 0 0 -0.1954 500.0683 500.1054)" id="220432">
<path style="stroke: none; stroke-width: 1; stroke-dasharray: none; stroke-linecap: butt; stroke-dashoffset: 0; stroke-linejoin: miter; stroke-miterlimit: 4; is-custom-font: none; font-file-url: none; fill: rgb(255,255,255); fill-rule: nonzero; opacity: 1;" vector-effect="non-scaling-stroke" transform=" translate(-2558.8002, -2559.3929)" d="M 2787 5104 c -33 -8 -96 -33 -140 -56 c -101 -52 -221 -168 -291 -280 c -46 -75 -49 -77 -94 -83 c -61 -9 -210 -43 -227 -53 c -9 -5 9 -45 71 -152 c 50 -87 84 -156 84 -173 c 0 -36 -49 -87 -84 -87 c -56 0 -75 20 -157 165 c -43 78 -85 149 -91 158 c -12 15 -22 10 -108 -47 c -52 -35 -125 -92 -163 -126 l -67 -62 l 130 -128 c 123 -122 130 -130 130 -168 c 0 -54 -25 -82 -78 -89 l -42 -6 l -123 122 c -68 66 -126 121 -129 121 c -8 0 -117 -170 -167 -261 l -42 -77 l 33 -20 c 18 -11 87 -50 153 -87 c 66 -37 128 -77 137 -89 c 10 -11 18 -37 18 -58 c 0 -28 -7 -42 -31 -62 c -17 -14 -43 -26 -57 -26 c -16 0 -84 35 -167 84 c -77 47 -143 81 -147 78 c -22 -23 -112 -353 -98 -362 c 5 -3 80 -25 167 -49 c 121 -33 163 -49 181 -68 c 49 -54 12 -143 -60 -143 c -18 0 -100 18 -182 40 c -83 22 -152 38 -153 36 c -4 -4 -38 -222 -48 -308 l -6 -58 l 176 0 l 177 0 l 29 -29 c 39 -40 39 -82 0 -122 l -29 -29 l -185 0 l -184 0 l -7 -57 c -3 -32 -9 -123 -12 -202 c -7 -138 -6 -143 12 -138 c 102 31 288 77 313 77 c 62 0 97 -63 70 -123 c -15 -34 -31 -40 -209 -87 c -85 -23 -164 -44 -174 -47 c -18 -5 -19 -15 -14 -188 c 4 -106 11 -191 17 -204 c 6 -11 25 -27 40 -36 c 25 -13 31 -13 41 0 c 7 8 85 55 175 105 c 109 61 173 90 194 90 c 61 0 101 -73 71 -129 c -5 -10 -68 -53 -140 -96 c -71 -42 -130 -80 -130 -84 c 0 -4 70 -45 156 -91 c 86 -47 163 -95 171 -107 c 24 -36 9 -69 -45 -99 c -131 -74 -160 -94 -228 -157 c -100 -93 -139 -171 -139 -277 c 0 -60 6 -86 28 -133 c 24 -54 25 -61 12 -80 c -12 -17 -15 -61 -15 -225 l 0 -204 l 29 -29 l 29 -29 l 1362 0 l 1362 0 l 29 29 l 29 29 l 0 208 l 0 207 l -32 31 l -33 31 l 17 50 c 26 76 23 188 -6 250 c -36 76 -78 117 -231 224 c -139 98 -140 98 -140 137 c 0 35 4 41 35 55 c 19 10 73 24 119 33 c 154 28 229 102 238 233 c 15 216 -133 460 -717 1179 c -102 126 -210 260 -241 299 l -56 71 l 141 -4 c 77 -2 184 1 236 7 l 95 10 l 30 -28 c 67 -63 195 -135 280 -157 c 155 -42 259 16 316 176 c 15 44 16 45 80 57 c 104 21 126 61 136 243 c 11 222 -53 356 -226 472 c -196 131 -380 322 -462 478 c -23 44 -64 95 -129 161 c -78 78 -110 102 -181 137 c -47 23 -125 52 -173 64 l -88 22 l 4 90 c 3 72 10 103 31 150 c 30 65 32 83 15 121 c -25 54 -103 68 -221 39 z" stroke-linecap="round"/>
</g>
</svg>