<?xml version="1.0" standalone="no"?>
<!DOCTYPE svg PUBLIC "-//W3C//DTD SVG 20010904//EN"
 "http://www.w3.org/TR/2001/REC-SVG-20010904/DTD/svg10.dtd">
<svg version="1.0" xmlns="http://www.w3.org/2000/svg"
 width="512.000000pt" height="512.000000pt" viewBox="0 0 512.000000 512.000000"
 preserveAspectRatio="xMidYMid meet">

<g transform="translate(0.000000,512.000000) scale(0.100000,-0.100000)"
fill="#000000" stroke="none">
<path d="M2787 5104 c-33 -8 -96 -33 -140 -56 -101 -52 -221 -168 -291 -280
-46 -75 -49 -77 -94 -83 -61 -9 -210 -43 -227 -53 -9 -5 9 -45 71 -152 50 -87
84 -156 84 -173 0 -36 -49 -87 -84 -87 -56 0 -75 20 -157 165 -43 78 -85 149
-91 158 -12 15 -22 10 -108 -47 -52 -35 -125 -92 -163 -126 l-67 -62 130 -128
c123 -122 130 -130 130 -168 0 -54 -25 -82 -78 -89 l-42 -6 -123 122 c-68 66
-126 121 -129 121 -8 0 -117 -170 -167 -261 l-42 -77 33 -20 c18 -11 87 -50
153 -87 66 -37 128 -77 137 -89 10 -11 18 -37 18 -58 0 -28 -7 -42 -31 -62
-17 -14 -43 -26 -57 -26 -16 0 -84 35 -167 84 -77 47 -143 81 -147 78 -22 -23
-112 -353 -98 -362 5 -3 80 -25 167 -49 121 -33 163 -49 181 -68 49 -54 12
-143 -60 -143 -18 0 -100 18 -182 40 -83 22 -152 38 -153 36 -4 -4 -38 -222
-48 -308 l-6 -58 176 0 177 0 29 -29 c39 -40 39 -82 0 -122 l-29 -29 -185 0
-184 0 -7 -57 c-3 -32 -9 -123 -12 -202 -7 -138 -6 -143 12 -138 102 31 288
77 313 77 62 0 97 -63 70 -123 -15 -34 -31 -40 -209 -87 -85 -23 -164 -44
-174 -47 -18 -5 -19 -15 -14 -188 4 -106 11 -191 17 -204 6 -11 25 -27 40 -36
25 -13 31 -13 41 0 7 8 85 55 175 105 109 61 173 90 194 90 61 0 101 -73 71
-129 -5 -10 -68 -53 -140 -96 -71 -42 -130 -80 -130 -84 0 -4 70 -45 156 -91
86 -47 163 -95 171 -107 24 -36 9 -69 -45 -99 -131 -74 -160 -94 -228 -157
-100 -93 -139 -171 -139 -277 0 -60 6 -86 28 -133 24 -54 25 -61 12 -80 -12
-17 -15 -61 -15 -225 l0 -204 29 -29 29 -29 1362 0 1362 0 29 29 29 29 0 208
0 207 -32 31 -33 31 17 50 c26 76 23 188 -6 250 -36 76 -78 117 -231 224 -139
98 -140 98 -140 137 0 35 4 41 35 55 19 10 73 24 119 33 154 28 229 102 238
233 15 216 -133 460 -717 1179 -102 126 -210 260 -241 299 l-56 71 141 -4 c77
-2 184 1 236 7 l95 10 30 -28 c67 -63 195 -135 280 -157 155 -42 259 16 316
176 15 44 16 45 80 57 104 21 126 61 136 243 11 222 -53 356 -226 472 -196
131 -380 322 -462 478 -23 44 -64 95 -129 161 -78 78 -110 102 -181 137 -47
23 -125 52 -173 64 l-88 22 4 90 c3 72 10 103 31 150 30 65 32 83 15 121 -25
54 -103 68 -221 39z"/>
</g>
</svg>
